<svg xmlns="http://www.w3.org/2000/svg" viewBox="0 0 500 500"><g id="Floor--inject-54"><path d="M476.4,470.22c0,.14-101.51.26-226.7.26S23,470.36,23,470.22,124.47,470,249.7,470,476.4,470.08,476.4,470.22Z" style="fill:#263238"></path></g><g id="Character--inject-54"><polygon points="221.89 431.89 226.78 396.55 249.67 397.73 236.93 435.7 221.89 431.89" style="fill:#ffbe9d"></polygon><path d="M238.27,432l-.08,1s16.53,8.4,16.43,11.67l-34-3.18,1.52-11.28A19.57,19.57,0,0,0,238.27,432Z" style="fill:#FFC100"></path><g style="opacity:0.6000000000000001"><path d="M225.22,434.13a1.4,1.4,0,0,0-1.1,1.5,1.35,1.35,0,0,0,1.47,1.11,1.47,1.47,0,0,0,1.16-1.59,1.38,1.38,0,0,0-1.66-1" style="fill:#fff"></path></g><g style="opacity:0.6000000000000001"><path d="M220.6,441.47l.36-2.72,32.47,4s1.46.8,1.19,1.86Z" style="fill:#fff"></path></g><path d="M238.3,433.09c0,.16-.86.16-1.73.62s-1.36,1.11-1.51,1,.19-1,1.25-1.55S238.35,432.94,238.3,433.09Z" style="fill:#263238"></path><path d="M241.73,434.9c0,.16-.72.38-1.35,1s-.87,1.37-1,1.35-.18-1,.62-1.77S241.74,434.74,241.73,434.9Z" style="fill:#263238"></path><path d="M243.36,439.36c-.16,0-.31-.84.2-1.7s1.32-1.16,1.38-1-.47.59-.88,1.31S243.52,439.35,243.36,439.36Z" style="fill:#263238"></path><polygon points="128.1 379.39 153.11 361.46 172.88 372.21 137.01 392.52 128.1 379.39" style="fill:#ffbe9d"></polygon><path d="M139,391.68l-.85.56s3.58,18.19.94,20.12l-18.46-28.74,9.61-6.08A20.47,20.47,0,0,0,139,391.68Z" style="fill:#FFC100"></path><g style="opacity:0.6000000000000001"><path d="M129.27,382.74a1.41,1.41,0,0,0-1.87.05,1.34,1.34,0,0,0,0,1.84,1.47,1.47,0,0,0,2-.06,1.4,1.4,0,0,0-.25-1.92" style="fill:#fff"></path></g><g style="opacity:0.6000000000000001"><path d="M120.64,383.62l2.36-1.39,16.83,28.06s.27,1.64-.73,2.07Z" style="fill:#fff"></path></g><path d="M138.15,392.39c-.15.09-.66-.58-1.56-1s-1.72-.39-1.74-.55.91-.48,2,0S138.3,392.34,138.15,392.39Z" style="fill:#263238"></path><path d="M138.84,396.21c-.12.12-.75-.34-1.65-.43s-1.61.17-1.7,0,.66-.74,1.77-.6S139,396.12,138.84,396.21Z" style="fill:#263238"></path><path d="M136.33,400.24c-.11-.11.46-.76,1.46-.89s1.73.33,1.65.46-.75,0-1.57.11S136.43,400.37,136.33,400.24Z" style="fill:#263238"></path><circle cx="289.95" cy="180.71" r="5.34" style="fill:#263238"></circle><path d="M229.59,131.73a32.59,32.59,0,0,1,23.91,23.73c2.2,8.35,7.08,45.16,7.08,45.16L290,177.91,299.1,190l-26.93,30.62c-6,7.27-17.75,9-26.69,6h0c-10.15-3.41-10.67-10.43-9.51-21.07Z" style="fill:#ffbe9d"></path><path d="M303,185.08l9.69-10.61-15.08-8c-1.06.64-7.61,11.41-7.61,11.41l-.4,1.85s9.29,10.1,9.55,10.27S303,185.08,303,185.08Z" style="fill:#ffbe9d"></path><path d="M312.08,175.43s-.05.13-.17.28c-1,1.27-5.81,6.25-6.63,5.89s-2.28-2.44-1.77-3.21,6.29-6.08,6.29-6.08,1-.78,2.67.42C313.53,173.47,312.08,175.43,312.08,175.43Z" style="fill:#ffbe9d"></path><path d="M310.76,170.75s-.05.13-.16.28c-1,1.28-5.82,6.26-6.64,5.89s-2.27-2.43-1.76-3.21,6.28-6.08,6.28-6.08,1-.78,2.68.42C312.22,168.8,310.76,170.75,310.76,170.75Z" style="fill:#ffbe9d"></path><path d="M308.66,167.05s-.05.13-.17.28c-1,1.27-5.82,6.25-6.64,5.89s-2.27-2.44-1.76-3.22,6.28-6.08,6.28-6.08,1-.78,2.68.43C310.11,165.09,308.66,167.05,308.66,167.05Z" style="fill:#ffbe9d"></path><path d="M306.51,163.41s-.05.13-.17.28c-1,1.28-5.81,6.26-6.63,5.89s-2.27-2.43-1.76-3.21,6.28-6.08,6.28-6.08,1-.78,2.68.42C308,161.46,306.51,163.41,306.51,163.41Z" style="fill:#ffbe9d"></path><path d="M304.89,176.89a14.32,14.32,0,0,0,2.55-2.24,13.38,13.38,0,0,0,2.22-2.5,13.41,13.41,0,0,0-2.56,2.23A12.24,12.24,0,0,0,304.89,176.89Z" style="fill:#eb996e"></path><path d="M301.89,174.09a25.86,25.86,0,0,0,3.58-3.23,25.17,25.17,0,0,0,3.28-3.54,53.94,53.94,0,0,0-6.86,6.77Z" style="fill:#eb996e"></path><g style="opacity:0.78"><path d="M299.1,171a52.25,52.25,0,0,0,6.86-6.77,26.54,26.54,0,0,0-3.58,3.23A25.94,25.94,0,0,0,299.1,171Z" style="fill:#eb996e"></path></g><path d="M293.38,178.36l.67-5.7a9.76,9.76,0,0,1,3.48-6.38l1.48-1.21,9.45,9.91s-4.21,2.72-6.32-.52l.5,5.31Z" style="fill:#ffbe9d"></path><path d="M301.46,179.8c-.07,0,.27-.59.48-1.67a6.24,6.24,0,0,0-.79-4.35l-.75-1.23,1.15.88,2.64,2-.06,0a3.73,3.73,0,0,0,4-.2,2.49,2.49,0,0,0,.23-.22l0,.43c-2.78-2.69-5.27-5.16-6.95-7-.85-.94-1.51-1.72-2-2.27a3.61,3.61,0,0,1-.63-.9,35.25,35.25,0,0,1,2.9,2.86c1.76,1.8,4.28,4.2,7.08,6.89l.22.21-.2.22a1.87,1.87,0,0,1-.32.31,3.74,3.74,0,0,1-2.38.82,5.24,5.24,0,0,1-2.26-.56h0l0,0-2.59-2.09.39-.35a6.29,6.29,0,0,1,.63,4.7A3.27,3.27,0,0,1,301.46,179.8Z" style="fill:#eb996e"></path><path d="M306.3,175.79c.11.05-.33.6-.5,1.51a1.21,1.21,0,0,0,.55,1.24,1.79,1.79,0,0,0,1.74-.38c1.19-.95,2.36-1.78,3.11-2.42s1.2-1.11,1.28-1.05-.25.62-1,1.38a29,29,0,0,1-3.06,2.61,2.29,2.29,0,0,1-2.36.39,1.63,1.63,0,0,1-.73-1.85,2.92,2.92,0,0,1,.59-1.13C306.14,175.87,306.27,175.77,306.3,175.79Z" style="fill:#eb996e"></path><path d="M257.63,213a5,5,0,0,1-.41-1.85,14.9,14.9,0,0,1,.25-4.57,14.42,14.42,0,0,1,1.63-4.29,5,5,0,0,1,1.12-1.52,28.11,28.11,0,0,0-2.24,5.91A28.64,28.64,0,0,0,257.63,213Z" style="fill:#eb996e"></path><polygon points="286.54 180.1 297.84 191.46 300.92 187.89 289.74 177.55 286.54 180.1" style="fill:#263238"></polygon><path d="M212.05,144.88c.71-3.88-1.45-8.56,1.21-11.48,1.84-2,5.12-2,7.25-3.69,2.74-2.23,2.55-6.35,2.86-9.86a25.38,25.38,0,0,1,6.84-15.13c1.57-1.65,3.53-3.64,2.88-5.82a5.87,5.87,0,0,0-1.34-2.05L212.21,74.57a23.3,23.3,0,0,0-5.42-5,7.81,7.81,0,0,0-7.07-.74c-3.92,1.81-4.59,7.09-7.38,10.38-2.52,3-6.78,4.29-8.64,7.71-1.77,3.27-.82,7.57-2.79,10.72-2.62,4.21-9.16,4.46-11.89,8.6-2.39,3.62-1,8.94-3.7,12.31-2.47,3.06-7,3.06-10.65,4.61,0,0,4.15,4.56,6,7.18s8.24,2.82,11.05.91,3.37-3.53,5.1-5.34a16,16,0,0,1,4.75-3s-5.08,3.83-4.75,5.53-4.7,7.94-5.9,7.53,13.26,8.9,13.26,8.9Z" style="fill:#263238"></path><path d="M236.79,69.36c-.2,2.66,1.56,5,3.33,7s3.75,4.08,4.13,6.72c.68,4.68-3.91,9-3,13.66.51,2.49,2.54,4.49,2.9,7s-.95,4.81-2.56,6.66-3.58,3.38-5,5.38-2.33,4.6-3.41,6.94-2.53,4.68-4.8,5.91c-3.42,1.86-8.2,1-10.82,3.86s-1.73,7.84-4.85,9.93" style="fill:#263238"></path><path d="M195.87,73.43c-.07-2.41,2.16-4.28,4.41-5.16S205,67.05,207,65.7c1.78-1.19,3-3.06,4.47-4.58a14.87,14.87,0,0,1,25,6.82c.86,3.44.27,7.51-2.44,9.79-3.15,2.66-7.81,2.07-11.84,1.24s-8.59-1.64-12,.73c-2,1.43-3.19,3.75-4.43,5.9s-2.8,4.34-5.15,5.15-5.53-.59-5.62-3.07" style="fill:#263238"></path><path d="M205.39,73.93a4,4,0,0,0-3.6,4.1h0l2.41,54.57c.1,6.44,9.52,10.07,16.42,9.91h0c7-.17,7.19-3.58,7.28-9.72.14-10.24.13-14.08.13-14s8.81-1.48,10.6-13c.9-5.71.59-15.08.09-22.73-.45-6.89-5-15.34-11.9-14.6Z" style="fill:#ffbe9d"></path><path d="M236.54,89.62a1.47,1.47,0,0,1-1.41,1.49,1.4,1.4,0,0,1-1.52-1.32,1.48,1.48,0,0,1,1.41-1.5A1.41,1.41,0,0,1,236.54,89.62Z" style="fill:#263238"></path><path d="M236.7,87.93c-.18.2-1.3-.63-2.89-.62s-2.74.8-2.91.61.1-.43.6-.8a4.06,4.06,0,0,1,2.34-.73,3.87,3.87,0,0,1,2.3.74C236.62,87.5,236.79,87.85,236.7,87.93Z" style="fill:#263238"></path><path d="M220.76,90a1.47,1.47,0,0,1-1.42,1.49,1.41,1.41,0,0,1-1.52-1.33,1.48,1.48,0,0,1,1.42-1.49A1.41,1.41,0,0,1,220.76,90Z" style="fill:#263238"></path><path d="M221.12,88.26c-.18.2-1.3-.63-2.89-.62s-2.74.8-2.92.61.1-.43.61-.8a4.06,4.06,0,0,1,2.34-.73,3.87,3.87,0,0,1,2.29.74C221,87.83,221.21,88.18,221.12,88.26Z" style="fill:#263238"></path><path d="M226.9,100a9.94,9.94,0,0,1,2.57-.47c.41-.05.79-.13.86-.4a2.08,2.08,0,0,0-.28-1.2l-1.2-3.08c-1.67-4.39-2.88-8-2.71-8.06s1.68,3.44,3.35,7.82c.4,1.08.79,2.11,1.16,3.1a2.4,2.4,0,0,1,.21,1.59,1,1,0,0,1-.67.59,2.54,2.54,0,0,1-.68.1A10.31,10.31,0,0,1,226.9,100Z" style="fill:#263238"></path><path d="M228,118.76a29.21,29.21,0,0,1-15.39-4.06s3.75,7.88,15.25,6.78Z" style="fill:#eb996e"></path><path d="M226.24,103.83a2.91,2.91,0,0,0-2.57-1.06,2.63,2.63,0,0,0-1.8,1,1.67,1.67,0,0,0-.12,1.89,1.94,1.94,0,0,0,2.08.53,5.91,5.91,0,0,0,2-1.22,1.71,1.71,0,0,0,.46-.47.53.53,0,0,0,0-.59" style="fill:#eb996e"></path><path d="M222.23,101.11c.26,0,.27,1.71,1.74,2.93s3.31,1,3.33,1.26-.41.34-1.19.36a4.24,4.24,0,0,1-2.77-1,3.73,3.73,0,0,1-1.35-2.45C221.93,101.53,222.12,101.1,222.23,101.11Z" style="fill:#263238"></path><path d="M221.83,85.49c-.16.43-1.74.23-3.6.45s-3.37.74-3.61.36c-.11-.19.15-.59.75-1a6.34,6.34,0,0,1,5.49-.62C221.55,84.94,221.89,85.28,221.83,85.49Z" style="fill:#263238"></path><path d="M236.11,83.35c-.28.36-1.37,0-2.69,0s-2.42.25-2.68-.13c-.11-.18.06-.54.55-.88a3.77,3.77,0,0,1,2.18-.6,3.72,3.72,0,0,1,2.14.72C236.08,82.8,236.23,83.17,236.11,83.35Z" style="fill:#263238"></path><path d="M197.37,111.72a10.21,10.21,0,0,0,12.14-11.28c-.36-2.82-1.88-5.69-.9-8.36,1.29-3.53,6.24-4.62,7.55-8.14.76-2,.08-4.44.94-6.45s2.8-3,4.74-3.67,4-1.18,5.62-2.44,2.64-3.65,1.59-5.41a108.4,108.4,0,0,0-25.1,6.1c-1.88.7-3.85,1.54-4.95,3.2s-1.12,4-1,6.16l1.44,30.94" style="fill:#263238"></path><path d="M215.29,65.57a5.08,5.08,0,0,1-.65.74,8,8,0,0,1-2.36,1.53,14.63,14.63,0,0,1-4.33,1c-1.73.21-3.72.17-5.88.22a17.58,17.58,0,0,0-6.85,1.39A7.32,7.32,0,0,0,192.31,73a18.72,18.72,0,0,0-1.67,3.79,6.77,6.77,0,0,1-2.71,3.58,20.81,20.81,0,0,1-4.36,1.62,6.59,6.59,0,0,0-3.75,2.51,13.09,13.09,0,0,0-1.68,4.49,23.27,23.27,0,0,1-1.42,4.76,11.7,11.7,0,0,1-3,3.81,11.56,11.56,0,0,1-4.12,2.22,15.9,15.9,0,0,1-4.44.53,10.2,10.2,0,0,0-4,.68,5.57,5.57,0,0,0-1.56,1.1,7.44,7.44,0,0,0-1.08,1.55c-1.12,2.25-1.48,4.68-2.48,6.66a10,10,0,0,1-4.14,4.19,10.54,10.54,0,0,1-4.26,1.27,9.87,9.87,0,0,1-2.81-.2c-.32-.08-.55-.17-.7-.21l-.24-.09a11.58,11.58,0,0,0,3.73.3,10.43,10.43,0,0,0,4.14-1.33,9.6,9.6,0,0,0,3.94-4.1c1-1.92,1.29-4.33,2.44-6.69a7.27,7.27,0,0,1,1.14-1.65,5.89,5.89,0,0,1,1.69-1.22,10.69,10.69,0,0,1,4.21-.74,16.15,16.15,0,0,0,4.31-.52,11.2,11.2,0,0,0,3.93-2.14,11,11,0,0,0,2.86-3.65,22.21,22.21,0,0,0,1.38-4.65,13.58,13.58,0,0,1,1.76-4.67,6,6,0,0,1,1.8-1.72,10.15,10.15,0,0,1,2.22-1,20.06,20.06,0,0,0,4.26-1.56,6.17,6.17,0,0,0,2.52-3.33,19,19,0,0,1,1.75-3.87,7.6,7.6,0,0,1,3.1-2.58,17.37,17.37,0,0,1,7-1.37c2.19,0,4.14,0,5.86-.15a14.88,14.88,0,0,0,4.28-.94A9.22,9.22,0,0,0,215.29,65.57Z" style="fill:#263238"></path><path d="M206.73,129.46c-13.77,1.3-22.95,6.3-29.95,13.07L186,170.07s8.5,16.22,7.92,27.75-6.18,16.3-10.75,31.87l63.52,9.3s-3.58-37.19-4.35-45.26,8.65-18.43,5.81-29.14c-6.31-23.78-15.74-32-15.74-32S218.65,127.54,206.73,129.46Z" style="fill:#FFC100"></path><path d="M188.51,216.27a5.33,5.33,0,0,0,5.47.2,11.22,11.22,0,0,0,4.08-4c2-3,3.33-6.55,2.83-10.08s-3.29-6.87-6.85-7.16c0,0-.3,5-.62,6.61S188.51,216.27,188.51,216.27Z" style="fill:#ffbe9d"></path><path d="M233.08,170a3.71,3.71,0,0,1-.16,1,17.41,17.41,0,0,1-.86,2.74A20.73,20.73,0,0,1,218.32,186a17.24,17.24,0,0,1-2.83.56,3.83,3.83,0,0,1-1.05,0c0-.1,1.49-.23,3.77-.95a21.82,21.82,0,0,0,13.51-12.07C232.69,171.42,233,169.94,233.08,170Z" style="fill:#263238"></path><path d="M236.14,198.7a5.36,5.36,0,0,1-.24,1.23,12.56,12.56,0,0,1-.39,1.41c-.17.55-.35,1.18-.62,1.85a37.46,37.46,0,0,1-2.09,4.63,38,38,0,0,1-7.61,9.8,36.27,36.27,0,0,1-4,3.17,26.23,26.23,0,0,1-2.91,1.79,5.78,5.78,0,0,1-1.14.54c0-.09,1.53-.93,3.83-2.63a41,41,0,0,0,3.85-3.22,40.71,40.71,0,0,0,7.52-9.68,41.86,41.86,0,0,0,2.17-4.53C235.62,200.4,236.05,198.67,236.14,198.7Z" style="fill:#263238"></path><g style="opacity:0.30000000000000004"><path d="M235.62,200.56c-2.37,3.8-6,7.93-10.48,9.33-1.92.61-3.94.81-5.91,1.26a10.28,10.28,0,0,0-5.32,2.66,4.47,4.47,0,0,0,3.66,7.82,10.85,10.85,0,0,0,5.07-2c6.67-4.33,10.88-11.13,13-19.09"></path></g><path d="M200.4,130.44a4.09,4.09,0,0,1,.32.58c.2.39.47,1,.82,1.73.69,1.51,1.66,3.71,2.7,6.5a70.31,70.31,0,0,1,2.94,10A49.9,49.9,0,0,1,208.25,162a37.19,37.19,0,0,1-2.73,12.49,31,31,0,0,1-5.59,8.83,26,26,0,0,1-5.38,4.53c-.71.44-1.28.75-1.67.94a3.28,3.28,0,0,1-.61.27s.8-.45,2.17-1.38a28,28,0,0,0,5.22-4.61,31.33,31.33,0,0,0,5.41-8.76A37.34,37.34,0,0,0,207.73,162a51,51,0,0,0-1-12.62,75.35,75.35,0,0,0-2.82-10c-1-2.79-1.9-5-2.53-6.54-.31-.72-.55-1.31-.74-1.76A3,3,0,0,1,200.4,130.44Z" style="fill:#fafafa"></path><path d="M203.86,130a4.29,4.29,0,0,1,.36.63c.22.42.54,1,.94,1.86.78,1.62,1.88,4,3.06,7a69.18,69.18,0,0,1,3.27,10.86,49,49,0,0,1,1,13.86,36.59,36.59,0,0,1-3.59,13.41,30.66,30.66,0,0,1-6.83,9,26,26,0,0,1-6.37,4.24,17.54,17.54,0,0,1-1.93.77,4.13,4.13,0,0,1-.69.21c0-.06.93-.36,2.54-1.17a27.2,27.2,0,0,0,6.2-4.32,31,31,0,0,0,6.65-9,36.69,36.69,0,0,0,3.5-13.24,49.56,49.56,0,0,0-.93-13.72,73.25,73.25,0,0,0-3.14-10.83c-1.13-3-2.18-5.4-2.91-7.05l-.84-1.89A3,3,0,0,1,203.86,130Z" style="fill:#fafafa"></path><path d="M242.55,157.47a7,7,0,0,1-3,1.34,7,7,0,0,1-3.26.35,20.37,20.37,0,0,1,3.12-.85A20.64,20.64,0,0,1,242.55,157.47Z" style="fill:#fafafa"></path><path d="M241.7,159.49a7.37,7.37,0,0,1-2.57.95,7.22,7.22,0,0,1-2.7.43,7.7,7.7,0,0,1,2.57-.94A7.4,7.4,0,0,1,241.7,159.49Z" style="fill:#fafafa"></path><path d="M204.05,129.77s5.88,11.21,20.64,9.55c8.53-1,3.34-8.42,3.34-8.42S220.07,126.25,204.05,129.77Z" style="fill:#ffbe9d"></path><path d="M246.56,238.34l3.7,69A28.62,28.62,0,0,1,236.39,335l-75.8,46.34L147.43,364l69.43-53.61-7-76.8Z" style="fill:#263238"></path><path d="M184.05,229.69l-1.88,4.12c-4.06,8.93-5,20.46-1.86,28.63s8.14,14.85,16.14,22h0L233,317.88a11.71,11.71,0,0,1,3.63,10.57l-12.47,76.21L248.27,408l20.64-77.25c2.27-9.65,1.5-15.14-3.35-23.79l-49.17-72.4Z" style="fill:#263238"></path><path d="M264,304.6a4.34,4.34,0,0,1-.46-.59l-1.24-1.73-4.47-6.43-14.6-21.32-14.46-21.41-4.34-6.52-1.16-1.79a4.14,4.14,0,0,1-.37-.64,3.63,3.63,0,0,1,.46.59l1.24,1.73,4.47,6.43,14.6,21.32,14.46,21.4c1.81,2.72,3.28,4.94,4.34,6.52.48.75.86,1.34,1.16,1.79A5.13,5.13,0,0,1,264,304.6Z" style="fill:#455a64"></path><path d="M232.78,357.46a4.13,4.13,0,0,1,0-.62c.05-.45.12-1,.2-1.79.2-1.6.48-3.86.82-6.68.75-5.74,1.79-13.77,3-23.1v.08a13.72,13.72,0,0,0-3-6.05,52.49,52.49,0,0,0-5.12-5.24c-9.45-8.8-18.23-16.51-24.47-22.23-3.12-2.86-5.63-5.19-7.34-6.82l-2-1.89-.5-.51c-.12-.11-.17-.17-.16-.18s.07,0,.19.14l.54.47,2,1.82,7.46,6.69c6.29,5.65,15.12,13.32,24.57,22.13a51.68,51.68,0,0,1,5.18,5.3,14.21,14.21,0,0,1,3.07,6.28v.08c-1.29,9.31-2.39,17.33-3.18,23.07-.41,2.82-.73,5.07-1,6.67-.12.74-.21,1.33-.28,1.77A2.89,2.89,0,0,1,232.78,357.46Z" style="fill:#455a64"></path><path d="M223,323.05a6.23,6.23,0,0,1-1.7-1.31,16.08,16.08,0,0,1-4.62-9.15,5.84,5.84,0,0,1,0-2.15,25.94,25.94,0,0,0,2.07,6.87A26.29,26.29,0,0,0,223,323.05Z" style="fill:#455a64"></path><path d="M226.77,249.84a6.56,6.56,0,0,1,1-2.4,6.71,6.71,0,0,1,1.46-2.14,6.48,6.48,0,0,1-1,2.39A6.68,6.68,0,0,1,226.77,249.84Z" style="fill:#455a64"></path><path d="M198,76.23A14.75,14.75,0,0,0,193,67c-2.21-1.87-5.23-3.08-8-2.31a7,7,0,0,0-4.88,5.8,8,8,0,0,0,3,7.08,9.3,9.3,0,0,0,7.59,1.7c2.47-.52,4.84-2,7.33-1.57" style="fill:#263238"></path><path d="M159.57,128.2A21.36,21.36,0,0,0,164,127a18.38,18.38,0,0,0,9.14-8.11,15.73,15.73,0,0,0,1.53-3.81c.39-1.38.5-2.89.88-4.43a9.15,9.15,0,0,1,.87-2.27,5.37,5.37,0,0,1,1.75-1.83,16.71,16.71,0,0,1,4.9-1.67,6.55,6.55,0,0,0,4.32-2.63c.93-1.51,1-3.43,1.25-5.31a17.36,17.36,0,0,1,.51-2.89,6,6,0,0,1,1.49-2.63c1.52-1.48,3.63-1.89,5.49-2.53a8.71,8.71,0,0,0,2.6-1.31,4.36,4.36,0,0,0,1.48-2.34c.49-1.85.19-3.86.86-5.77a4.52,4.52,0,0,1,1.8-2.32,8.68,8.68,0,0,1,2.63-1.09c1.78-.48,3.59-.76,5-1.77a9.13,9.13,0,0,0,2.85-4c.63-1.52,1.12-3.07,1.78-4.5a13.5,13.5,0,0,1,1.14-2,9.71,9.71,0,0,1,1.52-1.67,10,10,0,0,1,3.73-2,9.09,9.09,0,0,1,7.05.78,9.78,9.78,0,0,1,3.76,3.88,9.26,9.26,0,0,1,1,3.27,5.11,5.11,0,0,1,0,1.19s0-.41-.14-1.18a9.36,9.36,0,0,0-1.1-3.18,9.72,9.72,0,0,0-3.72-3.73,8.83,8.83,0,0,0-6.81-.68A9.65,9.65,0,0,0,218,62.38a9.19,9.19,0,0,0-1.44,1.6,12.56,12.56,0,0,0-1.09,2c-.64,1.4-1.11,3-1.75,4.5a9.42,9.42,0,0,1-3,4.23c-1.49,1.11-3.37,1.39-5.1,1.87a8.4,8.4,0,0,0-2.49,1,4,4,0,0,0-1.6,2.08c-.62,1.73-.33,3.74-.84,5.72A4.86,4.86,0,0,1,199.06,88a8.88,8.88,0,0,1-2.76,1.4c-1.91.65-3.94,1.07-5.3,2.41s-1.65,3.35-1.85,5.2-.31,3.86-1.34,5.52a5.28,5.28,0,0,1-2.07,1.91,11.68,11.68,0,0,1-2.55.93,16.42,16.42,0,0,0-4.77,1.58,5.91,5.91,0,0,0-2.45,3.83c-.38,1.49-.5,3-.91,4.42a16.28,16.28,0,0,1-1.59,3.89,18.43,18.43,0,0,1-4.68,5.44,17.38,17.38,0,0,1-4.72,2.67,15.52,15.52,0,0,1-3.31.89l-.88.09A1.43,1.43,0,0,1,159.57,128.2Z" style="fill:#455a64"></path><path d="M183.49,77s-.29-.07-.66-.43a3.36,3.36,0,0,1-.91-2,4,4,0,0,1,1-3,6,6,0,0,1,3.43-1.89,12.12,12.12,0,0,1,3.89,0,15.46,15.46,0,0,1,3.07.76,13.75,13.75,0,0,1,1.94.86c.43.25.66.41.64.44s-1-.44-2.7-1a17.37,17.37,0,0,0-3-.63,12.34,12.34,0,0,0-3.73.06,5.64,5.64,0,0,0-3.17,1.7,3.64,3.64,0,0,0-1,2.69,3.44,3.44,0,0,0,.69,1.86C183.28,76.84,183.51,77,183.49,77Z" style="fill:#455a64"></path><path d="M188.94,79.7a2.7,2.7,0,0,1-.07-1.63,5.64,5.64,0,0,1,5.67-4.73,2.86,2.86,0,0,1,1.59.36c0,.09-.62-.06-1.58,0a6.12,6.12,0,0,0-3.4,1.34,6.05,6.05,0,0,0-1.92,3.1C189,79.08,189,79.7,188.94,79.7Z" style="fill:#455a64"></path><path d="M196.61,131.27c-12.14,2.14-21.08,12.63-21.08,12.63h0a12.7,12.7,0,0,0-1.34,1.49c-12.13,16.37-34.11,46.55-34.92,51.68-1.39,8.67,24.38,53.78,24.38,53.78l14.12-4.58-14-45.24L186,170l6,15.09C215,172.27,196.61,131.27,196.61,131.27Z" style="fill:#ffbe9d"></path><path d="M188.05,175.34l14.22-3.57s-1.67,7.14-6.48,10.64l-4.15,1.84Z" style="fill:#263238"></path><path d="M164,251.62l4.22,13.73,14.44-8.54.87-3.78a4.73,4.73,0,0,0-1.58-4.67l-5.18-4.3-1.38-1.29s-13.42,2.88-13.7,3S164,251.62,164,251.62Z" style="fill:#ffbe9d"></path><path d="M167.67,264.38s-.08-.11-.15-.29c-.61-1.48-2.44-8.18-1.7-8.7s3.25-.72,3.66.11,2,8.5,2,8.5.19,1.23-1.72,2.09C168.62,266.62,167.67,264.38,167.67,264.38Z" style="fill:#ffbe9d"></path><path d="M172.37,265.62s-.08-.11-.16-.28c-.6-1.49-2.43-8.19-1.7-8.71s3.25-.72,3.66.11,2.05,8.5,2.05,8.5.18,1.23-1.72,2.09C173.32,267.87,172.37,265.62,172.37,265.62Z" style="fill:#ffbe9d"></path><path d="M176.63,265.69s-.08-.11-.16-.29c-.6-1.48-2.43-8.18-1.7-8.7s3.26-.72,3.67.11,2,8.5,2,8.5.18,1.23-1.72,2.09C177.58,267.93,176.63,265.69,176.63,265.69Z" style="fill:#ffbe9d"></path><path d="M180.85,265.69s-.08-.11-.15-.29c-.61-1.48-2.44-8.18-1.71-8.7s3.26-.72,3.67.11,2,8.5,2,8.5.19,1.23-1.72,2.09C181.8,267.93,180.85,265.69,180.85,265.69Z" style="fill:#ffbe9d"></path><path d="M170.07,257.44a13.75,13.75,0,0,0,.63,3.34,13.4,13.4,0,0,0,1,3.19,13.75,13.75,0,0,0-.63-3.34A12.88,12.88,0,0,0,170.07,257.44Z" style="fill:#eb996e"></path><path d="M174,256.28a26.12,26.12,0,0,0,1,4.73,26.41,26.41,0,0,0,1.39,4.62,28.58,28.58,0,0,0-1-4.73A26.76,26.76,0,0,0,174,256.28Z" style="fill:#eb996e"></path><g style="opacity:0.78"><path d="M178.09,255.46a28.37,28.37,0,0,0,1,4.73,26.41,26.41,0,0,0,1.39,4.62,26.12,26.12,0,0,0-1-4.73A26.41,26.41,0,0,0,178.09,255.46Z" style="fill:#eb996e"></path></g><path d="M184,261.86a22.75,22.75,0,0,1-1.64-4.76c-.74-2.67-1.46-4.79-1.34-4.85a16.46,16.46,0,0,1,1.84,4.71A26.9,26.9,0,0,1,184,261.86Z" style="fill:#eb996e"></path><path d="M195.77,166.43a15.3,15.3,0,0,1-1.76,0,10.1,10.1,0,0,0-7.33,3.45,15.55,15.55,0,0,1-1.11,1.37,3.8,3.8,0,0,1,.82-1.6,9.1,9.1,0,0,1,7.63-3.59A3.82,3.82,0,0,1,195.77,166.43Z" style="fill:#eb996e"></path><path d="M163.94,201.28a15.83,15.83,0,0,1-1.33-1,9.61,9.61,0,0,0-7.59-1.58,14.22,14.22,0,0,1-1.63.4,3.53,3.53,0,0,1,1.54-.76,8.63,8.63,0,0,1,4.16-.16,8.43,8.43,0,0,1,3.74,1.81C163.65,200.67,164,201.25,163.94,201.28Z" style="fill:#eb996e"></path></g><g id="Treadmill--inject-54"><path d="M398.57,290.91s-11.84,44.45-13.07,77.4c-1.41,37.59,12.68,82.22,12.68,82.22H334.75v19.73h87.86s-17.24-73.3-14.9-109.65a373,373,0,0,1,10.9-67.46Z" style="fill:#263238"></path><path d="M391.83,290.91s-11.84,44.45-13.07,77.4c-1.41,37.59,12.68,82.22,12.68,82.22H347.75A19.73,19.73,0,0,0,328,470.26h87.86S398.63,397,401,360.61a373,373,0,0,1,10.9-67.46Z" style="fill:#455a64"></path><path d="M269.43,288.15h0a4.56,4.56,0,0,0,4.56,4.56h46.78V283.2l-46.82.39A4.56,4.56,0,0,0,269.43,288.15Z" style="fill:#455a64"></path><path d="M395.34,470.22H57.8a12.49,12.49,0,0,1-12.49-12.49h0A12.49,12.49,0,0,1,57.8,445.24H395.34a12.49,12.49,0,0,1,12.49,12.49h0A12.49,12.49,0,0,1,395.34,470.22Z" style="fill:#455a64"></path><path d="M343.78,470.22H57.8a12.49,12.49,0,0,1-12.49-12.49h0A12.49,12.49,0,0,1,57.8,445.24h286a12.49,12.49,0,0,1,12.49,12.49h0A12.49,12.49,0,0,1,343.78,470.22Z" style="fill:#263238"></path><path d="M317.12,290.91s-11.84,44.45-13.07,77.4c-1.41,37.59,12.68,82.22,12.68,82.22H253.31v19.73h87.86s-17.25-73.3-14.9-109.65a372.45,372.45,0,0,1,10.89-67.46Z" style="fill:#263238"></path><path d="M310.38,290.91s-11.84,44.45-13.07,77.4C295.9,405.9,310,450.53,310,450.53H266.3a19.73,19.73,0,0,0-19.73,19.73h87.86s-17.25-73.3-14.9-109.65a372.45,372.45,0,0,1,10.89-67.46Z" style="fill:#455a64"></path><path d="M343.11,470.56c-.14,0-2-6-4.09-13.42s-3.72-13.53-3.58-13.57,2,6,4.08,13.43S343.25,470.52,343.11,470.56Z" style="fill:#455a64"></path><path d="M407.83,456.26c0,.15-11.55.26-25.8.26s-25.8-.11-25.8-.26S367.78,456,382,456,407.83,456.12,407.83,456.26Z" style="fill:#263238"></path><path d="M403.33,470.22c0-.05.51-.31,1.39-.94a12.93,12.93,0,0,0,3.13-3.26,14,14,0,0,0,.63-14.16,15.22,15.22,0,0,0-2.63-3.31,9.39,9.39,0,0,0-3.45-1.81,31.25,31.25,0,0,0-6.65-1.16c-1.93-.15-3.5-.2-4.58-.24a11.41,11.41,0,0,1-1.69-.1,8.73,8.73,0,0,1,1.69-.1c1.09,0,2.66,0,4.61.07a29.78,29.78,0,0,1,6.77,1.07,9.86,9.86,0,0,1,3.64,1.89,15.66,15.66,0,0,1,2.74,3.42,12.16,12.16,0,0,1,1.49,4.13,17,17,0,0,1,.1,4.08,13.27,13.27,0,0,1-2.36,6.43,12.47,12.47,0,0,1-3.32,3.22c-.47.28-.84.49-1.1.61S403.34,470.24,403.33,470.22Z" style="fill:#263238"></path><polygon points="314.44 284.91 311.2 293.93 330.42 293.15 411.89 295.42 466.28 261.24 463.81 252.26 369.09 247.77 314.44 284.91" style="fill:#455a64"></polygon><polygon points="417.53 297.32 330.42 293.15 376.93 257.97 466.28 261.24 417.53 297.32" style="fill:#263238"></polygon><path d="M318.5,282.15A8.63,8.63,0,0,1,317,283.5a30.83,30.83,0,0,0-3.58,3.29,15.45,15.45,0,0,0-2.6,4,15.77,15.77,0,0,1-.77,1.88,5.33,5.33,0,0,1,.43-2,13,13,0,0,1,2.55-4.26,21.86,21.86,0,0,1,3.74-3.23A7.78,7.78,0,0,1,318.5,282.15Z" style="fill:#263238"></path><path d="M376.93,258a41.5,41.5,0,0,1-4.09-5,41.88,41.88,0,0,1-3.68-5.33,40.84,40.84,0,0,1,4.1,5A39.94,39.94,0,0,1,376.93,258Z" style="fill:#263238"></path><path d="M333.14,293.54a23.48,23.48,0,0,1-3.39,0l-8.18-.19c-3.19-.09-6.08-.21-8.18-.34a20.73,20.73,0,0,1-3.37-.33,22.42,22.42,0,0,1,3.39,0l8.18.19c3.19.09,6.08.21,8.18.34A19.9,19.9,0,0,1,333.14,293.54Z" style="fill:#263238"></path></g><g id="Plant--inject-54"><path d="M449.05,434.44c1.67,2.37,4.9,1.59,6.4.14s2.13-3.56,2.71-5.56c1.31-4.58,2.64-9.38,1.66-14a7.82,7.82,0,0,0-1.79-3.82,4.07,4.07,0,0,0-3.86-1.28c-1.63.43-2.65,2-3.38,3.54a33.54,33.54,0,0,0-3.31,14.37,11.72,11.72,0,0,0,1.57,6.65" style="fill:#FFC100"></path><g style="opacity:0.2"><path d="M449.05,434.44c1.67,2.37,4.9,1.59,6.4.14s2.13-3.56,2.71-5.56c1.31-4.58,2.64-9.38,1.66-14a7.82,7.82,0,0,0-1.79-3.82,4.07,4.07,0,0,0-3.86-1.28c-1.63.43-2.65,2-3.38,3.54a33.54,33.54,0,0,0-3.31,14.37,11.72,11.72,0,0,0,1.57,6.65"></path></g><path d="M455.28,446.46a14.45,14.45,0,0,1,9-1.08,7.4,7.4,0,0,1,4.41,2c1.11,1.22,1.31,3.36.05,4.41a4.22,4.22,0,0,1-2.79.7c-2.36,0-5-.44-6.87,1-1.08.81-1.8,2.16-3.08,2.56a3,3,0,0,1-3.35-1.49,5.2,5.2,0,0,1-.38-3.84A5.89,5.89,0,0,1,455.28,446.46Z" style="fill:#FFC100"></path><path d="M444.49,437.84a8.63,8.63,0,0,0,1.34-7.95,15.31,15.31,0,0,0-4.71-6.83,25.25,25.25,0,0,0-8.43-5,9,9,0,0,0-3.8-.64,4,4,0,0,0-3.18,1.92c-.89,1.7,0,3.75.89,5.43a63.46,63.46,0,0,0,5.54,8.43c1.66,2.14,3.56,4.25,6.09,5.22s5.16.86,6.5-.9" style="fill:#FFC100"></path><path d="M448.94,470.26a5.39,5.39,0,0,0,.15-1.08c.08-.78.17-1.77.29-2.94s.32-2.72.66-4.32a33,33,0,0,1,1.57-5.1,19.18,19.18,0,0,1,2.6-4.61,9.74,9.74,0,0,1,3.3-2.74,9.07,9.07,0,0,1,2.77-.86,4.84,4.84,0,0,0,1.07-.16,5.71,5.71,0,0,0-1.09,0,8.47,8.47,0,0,0-2.89.76A9.52,9.52,0,0,0,453.9,452a18.42,18.42,0,0,0-2.7,4.7,31.48,31.48,0,0,0-1.56,5.19,36.25,36.25,0,0,0-.58,4.37c-.09,1.25-.12,2.26-.14,3A4.87,4.87,0,0,0,448.94,470.26Z" style="fill:#263238"></path><path d="M449.14,468a1.66,1.66,0,0,0,0-.5v-1.44c0-1.24,0-3,.06-5.26.11-4.44.5-10.57,1.23-17.31s1.73-12.8,2.63-17.15q.33-1.65.63-2.94c.19-.86.36-1.6.52-2.2s.24-1,.33-1.39a2.82,2.82,0,0,0,.09-.5,1.82,1.82,0,0,0-.18.47l-.41,1.38c-.19.59-.38,1.33-.59,2.19s-.46,1.83-.69,2.92A163.48,163.48,0,0,0,450,443.44c-.74,6.75-1.07,12.9-1.1,17.36,0,2.22,0,4,.08,5.27,0,.58.06,1.05.08,1.43A3.3,3.3,0,0,0,449.14,468Z" style="fill:#263238"></path><path d="M449.17,456.14a7.86,7.86,0,0,0,0-1.5,39.66,39.66,0,0,0-.45-4.05,54.11,54.11,0,0,0-1.32-5.91,52.08,52.08,0,0,0-2.47-7,37.24,37.24,0,0,0-7.25-11.29,17.17,17.17,0,0,0-1.71-1.59c-.26-.22-.49-.44-.73-.62l-.66-.45a10,10,0,0,0-1.26-.81,44.47,44.47,0,0,1,4.13,3.68,39.41,39.41,0,0,1,7.07,11.25A54.59,54.59,0,0,1,447,444.8c.65,2.17,1.08,4.16,1.41,5.84s.48,3.06.59,4A10.38,10.38,0,0,0,449.17,456.14Z" style="fill:#263238"></path></g></svg>